<mxfile host="app.diagrams.net" agent="Mozilla/5.0 (X11; Linux x86_64) AppleWebKit/537.36 (KHTML, like Gecko) Chrome/133.0.0.0 Safari/537.36" version="26.0.16">
  <diagram name="PÃ¡gina-1" id="OiV1IAc265_GMAfPzvaT">
    <mxGraphModel dx="1376" dy="754" grid="1" gridSize="10" guides="1" tooltips="1" connect="1" arrows="1" fold="1" page="1" pageScale="1" pageWidth="827" pageHeight="1169" math="0" shadow="0">
      <root>
        <mxCell id="0" />
        <mxCell id="1" parent="0" />
        <mxCell id="0-2wewQvCxKnwhn3Sj2D-4" style="edgeStyle=orthogonalEdgeStyle;rounded=0;orthogonalLoop=1;jettySize=auto;html=1;entryX=0.5;entryY=0;entryDx=0;entryDy=0;" edge="1" parent="1" source="0-2wewQvCxKnwhn3Sj2D-1" target="0-2wewQvCxKnwhn3Sj2D-2">
          <mxGeometry relative="1" as="geometry" />
        </mxCell>
        <mxCell id="0-2wewQvCxKnwhn3Sj2D-1" value="get environment" style="rounded=1;whiteSpace=wrap;html=1;" vertex="1" parent="1">
          <mxGeometry x="330" y="30" width="120" height="60" as="geometry" />
        </mxCell>
        <mxCell id="0-2wewQvCxKnwhn3Sj2D-5" style="edgeStyle=orthogonalEdgeStyle;rounded=0;orthogonalLoop=1;jettySize=auto;html=1;entryX=0.5;entryY=0;entryDx=0;entryDy=0;" edge="1" parent="1" source="0-2wewQvCxKnwhn3Sj2D-2" target="0-2wewQvCxKnwhn3Sj2D-3">
          <mxGeometry relative="1" as="geometry" />
        </mxCell>
        <mxCell id="0-2wewQvCxKnwhn3Sj2D-2" value="main loop" style="rounded=1;whiteSpace=wrap;html=1;" vertex="1" parent="1">
          <mxGeometry x="330" y="210" width="120" height="60" as="geometry" />
        </mxCell>
        <mxCell id="0-2wewQvCxKnwhn3Sj2D-8" style="edgeStyle=orthogonalEdgeStyle;rounded=0;orthogonalLoop=1;jettySize=auto;html=1;entryX=0.5;entryY=0;entryDx=0;entryDy=0;" edge="1" parent="1" source="0-2wewQvCxKnwhn3Sj2D-3" target="0-2wewQvCxKnwhn3Sj2D-6">
          <mxGeometry relative="1" as="geometry" />
        </mxCell>
        <mxCell id="0-2wewQvCxKnwhn3Sj2D-12" value="&lt;font style=&quot;font-size: 14px;&quot;&gt;built in&lt;/font&gt;" style="edgeLabel;html=1;align=center;verticalAlign=middle;resizable=0;points=[];" vertex="1" connectable="0" parent="0-2wewQvCxKnwhn3Sj2D-8">
          <mxGeometry x="-0.1167" y="1" relative="1" as="geometry">
            <mxPoint as="offset" />
          </mxGeometry>
        </mxCell>
        <mxCell id="0-2wewQvCxKnwhn3Sj2D-9" style="edgeStyle=orthogonalEdgeStyle;rounded=0;orthogonalLoop=1;jettySize=auto;html=1;" edge="1" parent="1" source="0-2wewQvCxKnwhn3Sj2D-3" target="0-2wewQvCxKnwhn3Sj2D-16">
          <mxGeometry relative="1" as="geometry" />
        </mxCell>
        <mxCell id="0-2wewQvCxKnwhn3Sj2D-13" value="&lt;font style=&quot;font-size: 14px;&quot;&gt;external&lt;/font&gt;" style="edgeLabel;html=1;align=center;verticalAlign=middle;resizable=0;points=[];" vertex="1" connectable="0" parent="0-2wewQvCxKnwhn3Sj2D-9">
          <mxGeometry x="0.0077" y="-1" relative="1" as="geometry">
            <mxPoint as="offset" />
          </mxGeometry>
        </mxCell>
        <mxCell id="0-2wewQvCxKnwhn3Sj2D-3" value="lexing and parsing readline input" style="rounded=1;whiteSpace=wrap;html=1;" vertex="1" parent="1">
          <mxGeometry x="330" y="370" width="120" height="60" as="geometry" />
        </mxCell>
        <mxCell id="0-2wewQvCxKnwhn3Sj2D-10" style="edgeStyle=orthogonalEdgeStyle;rounded=0;orthogonalLoop=1;jettySize=auto;html=1;entryX=0;entryY=0.5;entryDx=0;entryDy=0;" edge="1" parent="1" source="0-2wewQvCxKnwhn3Sj2D-6" target="0-2wewQvCxKnwhn3Sj2D-2">
          <mxGeometry relative="1" as="geometry">
            <Array as="points">
              <mxPoint x="60" y="560" />
              <mxPoint x="60" y="240" />
            </Array>
          </mxGeometry>
        </mxCell>
        <mxCell id="0-2wewQvCxKnwhn3Sj2D-6" value="executing built in functons" style="rounded=1;whiteSpace=wrap;html=1;" vertex="1" parent="1">
          <mxGeometry x="160" y="530" width="120" height="60" as="geometry" />
        </mxCell>
        <mxCell id="0-2wewQvCxKnwhn3Sj2D-14" style="edgeStyle=orthogonalEdgeStyle;rounded=0;orthogonalLoop=1;jettySize=auto;html=1;entryX=0.5;entryY=0;entryDx=0;entryDy=0;" edge="1" parent="1" source="0-2wewQvCxKnwhn3Sj2D-7" target="0-2wewQvCxKnwhn3Sj2D-11">
          <mxGeometry relative="1" as="geometry" />
        </mxCell>
        <mxCell id="0-2wewQvCxKnwhn3Sj2D-7" value="finding executables in environment" style="rounded=1;whiteSpace=wrap;html=1;" vertex="1" parent="1">
          <mxGeometry x="520" y="600" width="120" height="60" as="geometry" />
        </mxCell>
        <mxCell id="0-2wewQvCxKnwhn3Sj2D-15" style="edgeStyle=orthogonalEdgeStyle;rounded=0;orthogonalLoop=1;jettySize=auto;html=1;entryX=1;entryY=0.5;entryDx=0;entryDy=0;" edge="1" parent="1" source="0-2wewQvCxKnwhn3Sj2D-11" target="0-2wewQvCxKnwhn3Sj2D-2">
          <mxGeometry relative="1" as="geometry">
            <Array as="points">
              <mxPoint x="750" y="770" />
              <mxPoint x="750" y="240" />
            </Array>
          </mxGeometry>
        </mxCell>
        <mxCell id="0-2wewQvCxKnwhn3Sj2D-11" value="executing external functions" style="rounded=1;whiteSpace=wrap;html=1;" vertex="1" parent="1">
          <mxGeometry x="520" y="740" width="120" height="60" as="geometry" />
        </mxCell>
        <mxCell id="0-2wewQvCxKnwhn3Sj2D-17" style="edgeStyle=orthogonalEdgeStyle;rounded=0;orthogonalLoop=1;jettySize=auto;html=1;" edge="1" parent="1" source="0-2wewQvCxKnwhn3Sj2D-16" target="0-2wewQvCxKnwhn3Sj2D-7">
          <mxGeometry relative="1" as="geometry" />
        </mxCell>
        <mxCell id="0-2wewQvCxKnwhn3Sj2D-16" value="fork" style="rounded=1;whiteSpace=wrap;html=1;" vertex="1" parent="1">
          <mxGeometry x="520" y="460" width="120" height="60" as="geometry" />
        </mxCell>
      </root>
    </mxGraphModel>
  </diagram>
</mxfile>
